HIERARCHY
ROOT Hips
{
    OFFSET 0.000000 0.000000 0.000000
    CHANNELS 6 Xposition Yposition Zposition Zrotation Xrotation Yrotation
    JOINT Spine
    {
        OFFSET -0.000000 8.300309 -0.000000
        CHANNELS 3 Zrotation Xrotation Yrotation
        JOINT Spine1
        {
            OFFSET 0.000000 21.724653 0.000001
            CHANNELS 3 Zrotation Xrotation Yrotation
            JOINT Neck
            {
                OFFSET 0.000000 21.947973 -0.000000
                CHANNELS 3 Zrotation Xrotation Yrotation
                JOINT Head
                {
                    OFFSET -0.000001 13.471359 1.867089
                    CHANNELS 3 Zrotation Xrotation Yrotation
                    End Site
                    {
                        OFFSET 0.000000 18.670868 0.000000
                    }
                }
            }
            JOINT LeftShoulder
            {
                OFFSET 3.727631 15.832901 -0.446436
                CHANNELS 3 Zrotation Xrotation Yrotation
                JOINT LeftArm
                {
                    OFFSET 15.415401 0.000002 0.000000
                    CHANNELS 3 Zrotation Xrotation Yrotation
                    JOINT LeftForeArm
                    {
                        OFFSET 23.524694 -0.000001 0.000000
                        CHANNELS 3 Zrotation Xrotation Yrotation
                        JOINT LeftHand
                        {
                            OFFSET 24.079298 -0.000005 0.000000
                            CHANNELS 3 Zrotation Xrotation Yrotation
                            JOINT LeftHandThumb1
                            {
                                OFFSET 1.951106 -2.217175 3.104029
                                CHANNELS 3 Zrotation Xrotation Yrotation
                                JOINT LeftHandThumb2
                                {
                                    OFFSET 2.946850 -0.000002 0.000002
                                    CHANNELS 3 Zrotation Xrotation Yrotation
                                    JOINT LeftHandThumb3
                                    {
                                        OFFSET 2.518700 0.000000 -0.000000
                                        CHANNELS 3 Zrotation Xrotation Yrotation
                                        End Site
                                        {
                                            OFFSET 2.351316 0.000000 0.000000
                                        }
                                    }
                                }
                            }
                            JOINT LeftHandIndex1
                            {
                                OFFSET 7.981797 0.000004 3.104029
                                CHANNELS 3 Zrotation Xrotation Yrotation
                                JOINT LeftHandIndex2
                                {
                                    OFFSET 4.434328 0.000005 -0.000002
                                    CHANNELS 3 Zrotation Xrotation Yrotation
                                    JOINT LeftHandIndex3
                                    {
                                        OFFSET 2.217171 -0.000003 0.000001
                                        CHANNELS 3 Zrotation Xrotation Yrotation
                                        End Site
                                        {
                                            OFFSET 2.069824 0.000000 0.000000
                                        }
                                    }
                                }
                            }
                            JOINT LeftHandMiddle1
                            {
                                OFFSET 7.981800 -0.000002 1.028760
                                CHANNELS 3 Zrotation Xrotation Yrotation
                                JOINT LeftHandMiddle2
                                {
                                    OFFSET 4.877760 -0.000002 0.000000
                                    CHANNELS 3 Zrotation Xrotation Yrotation
                                    JOINT LeftHandMiddle3
                                    {
                                        OFFSET 2.660599 -0.000002 -0.000000
                                        CHANNELS 3 Zrotation Xrotation Yrotation
                                        End Site
                                        {
                                            OFFSET 2.483785 0.000000 0.000000
                                        }
                                    }
                                }
                            }
                            JOINT LeftHandRing1
                            {
                                OFFSET 7.538355 -0.000002 -1.028760
                                CHANNELS 3 Zrotation Xrotation Yrotation
                                JOINT LeftHandRing2
                                {
                                    OFFSET 4.434327 0.000005 -0.000000
                                    CHANNELS 3 Zrotation Xrotation Yrotation
                                    JOINT LeftHandRing3
                                    {
                                        OFFSET 2.217171 -0.000002 0.000000
                                        CHANNELS 3 Zrotation Xrotation Yrotation
                                        End Site
                                        {
                                            OFFSET 2.069824 0.000000 0.000000
                                        }
                                    }
                                }
                            }
                            JOINT LeftHandPinky1
                            {
                                OFFSET 7.094929 -0.000001 -3.104030
                                CHANNELS 3 Zrotation Xrotation Yrotation
                                JOINT LeftHandPinky2
                                {
                                    OFFSET 3.547459 -0.000002 -0.000001
                                    CHANNELS 3 Zrotation Xrotation Yrotation
                                    JOINT LeftHandPinky3
                                    {
                                        OFFSET 1.773729 -0.000002 -0.000001
                                        CHANNELS 3 Zrotation Xrotation Yrotation
                                        End Site
                                        {
                                            OFFSET 1.655854 0.000000 0.000000
                                        }
                                    }
                                }
                            }
                        }
                    }
                }
            }
            JOINT RightShoulder
            {
                OFFSET -3.727631 15.832901 -0.446436
                CHANNELS 3 Zrotation Xrotation Yrotation
                JOINT RightArm
                {
                    OFFSET -15.415401 0.000005 0.000000
                    CHANNELS 3 Zrotation Xrotation Yrotation
                    JOINT RightForeArm
                    {
                        OFFSET -23.524700 0.000005 0.000000
                        CHANNELS 3 Zrotation Xrotation Yrotation
                        JOINT RightHand
                        {
                            OFFSET -24.079300 -0.000004 -0.000000
                            CHANNELS 3 Zrotation Xrotation Yrotation
                            JOINT RightHandThumb1
                            {
                                OFFSET -1.951110 -2.217168 3.104030
                                CHANNELS 3 Zrotation Xrotation Yrotation
                                JOINT RightHandThumb2
                                {
                                    OFFSET -2.946847 0.000001 0.000000
                                    CHANNELS 3 Zrotation Xrotation Yrotation
                                    JOINT RightHandThumb3
                                    {
                                        OFFSET -2.518699 -0.000003 0.000003
                                        CHANNELS 3 Zrotation Xrotation Yrotation
                                        End Site
                                        {
                                            OFFSET -2.351316 0.000000 0.000000
                                        }
                                    }
                                }
                            }
                            JOINT RightHandIndex1
                            {
                                OFFSET -7.981797 -0.000002 3.104030
                                CHANNELS 3 Zrotation Xrotation Yrotation
                                JOINT RightHandIndex2
                                {
                                    OFFSET -4.434331 0.000003 -0.000001
                                    CHANNELS 3 Zrotation Xrotation Yrotation
                                    JOINT RightHandIndex3
                                    {
                                        OFFSET -2.217168 -0.000000 0.000000
                                        CHANNELS 3 Zrotation Xrotation Yrotation
                                        End Site
                                        {
                                            OFFSET -2.069824 0.000000 0.000000
                                        }
                                    }
                                }
                            }
                            JOINT RightHandMiddle1
                            {
                                OFFSET -7.981801 -0.000004 1.028759
                                CHANNELS 3 Zrotation Xrotation Yrotation
                                JOINT RightHandMiddle2
                                {
                                    OFFSET -4.877759 -0.000006 -0.000001
                                    CHANNELS 3 Zrotation Xrotation Yrotation
                                    JOINT RightHandMiddle3
                                    {
                                        OFFSET -2.660598 -0.000005 -0.000000
                                        CHANNELS 3 Zrotation Xrotation Yrotation
                                        End Site
                                        {
                                            OFFSET -2.483785 0.000000 0.000000
                                        }
                                    }
                                }
                            }
                            JOINT RightHandRing1
                            {
                                OFFSET -7.538358 0.000003 -1.028759
                                CHANNELS 3 Zrotation Xrotation Yrotation
                                JOINT RightHandRing2
                                {
                                    OFFSET -4.434332 -0.000003 -0.000001
                                    CHANNELS 3 Zrotation Xrotation Yrotation
                                    JOINT RightHandRing3
                                    {
                                        OFFSET -2.217168 0.000004 0.000000
                                        CHANNELS 3 Zrotation Xrotation Yrotation
                                        End Site
                                        {
                                            OFFSET -2.069824 0.000000 0.000000
                                        }
                                    }
                                }
                            }
                            JOINT RightHandPinky1
                            {
                                OFFSET -7.094932 -0.000001 -3.104030
                                CHANNELS 3 Zrotation Xrotation Yrotation
                                JOINT RightHandPinky2
                                {
                                    OFFSET -3.547462 -0.000001 -0.000001
                                    CHANNELS 3 Zrotation Xrotation Yrotation
                                    JOINT RightHandPinky3
                                    {
                                        OFFSET -1.773727 -0.000004 -0.000002
                                        CHANNELS 3 Zrotation Xrotation Yrotation
                                        End Site
                                        {
                                            OFFSET -1.655854 0.000000 0.000000
                                        }
                                    }
                                }
                            }
                        }
                    }
                }
            }
        }
    }
    JOINT LeftUpLeg
    {
        OFFSET 9.335432 -0.000002 0.000000
        CHANNELS 3 Zrotation Xrotation Yrotation
        JOINT LeftLeg
        {
            OFFSET 0.000000 -40.546696 -0.000000
            CHANNELS 3 Zrotation Xrotation Yrotation
            JOINT LeftFoot
            {
                OFFSET 0.000000 -40.233597 -0.000000
                CHANNELS 3 Zrotation Xrotation Yrotation
                JOINT LeftToeBase
                {
                    OFFSET 0.000000 -6.068031 14.003201
                    CHANNELS 3 Zrotation Xrotation Yrotation
                    End Site
                    {
                        OFFSET 0.000000 0.000000 3.734173
                    }
                }
            }
        }
    }
    JOINT RightUpLeg
    {
        OFFSET -9.335431 0.000002 -0.000000
        CHANNELS 3 Zrotation Xrotation Yrotation
        JOINT RightLeg
        {
            OFFSET -0.000000 -40.546700 0.000000
            CHANNELS 3 Zrotation Xrotation Yrotation
            JOINT RightFoot
            {
                OFFSET 0.000000 -40.233604 0.000001
                CHANNELS 3 Zrotation Xrotation Yrotation
                JOINT RightToeBase
                {
                    OFFSET -0.000000 -6.068032 14.003201
                    CHANNELS 3 Zrotation Xrotation Yrotation
                    End Site
                    {
                        OFFSET 0.000000 0.000000 3.734173
                    }
                }
            }
        }
    }
}
MOTION
Frames:    4
Frame Time:    0.008333
10.911799    90.038414    -14.214958    -0.596989    -3.899489    -179.950592    0.005635    -13.233003    0.024616    -0.185810    13.514371    0.066721    0.609210    -4.675698    -2.338722    0.210837    -2.874582    -2.382578    -4.138064    0.328379    -7.924930    -68.374084    28.849264    -2.172296    -1.297764    -6.363066    -11.552491    -1.318865    -1.159504    -7.331385    21.892252    46.518700    -61.150951    -22.867785    -4.684809    22.867790    -0.000000    0.000000    -0.000000    -6.022409    17.906969    -15.306479    -5.729665    -0.000004    0.000003    -5.729658    0.000004    -0.000003    -5.729659    0.000002    -8.582202    -5.729671    -0.000007    0.000003    -5.729668    0.000001    -0.000005    -5.729661    0.000001    5.721451    -5.729669    -0.000000    0.000001    -5.729661    0.000002    0.000002    -6.022412    -17.906975    9.584974    -5.729661    0.000000    0.000001    -5.729671    0.000000    -0.000001    5.111580    5.992199    4.393560    64.073662    39.996635    15.735502    4.286584    -33.679848    7.697621    -0.004360    -5.516575    -7.510688    -21.892254    46.518703    61.150959    22.867790    -4.684800    -22.867794    -0.000000    0.000000    -0.000000    6.022399    17.906971    15.306477    5.729659    0.000001    -0.000000    5.729662    -0.000003    -0.000002    5.729654    -0.000000    8.582198    5.729662    -0.000000    -0.000000    5.729672    0.000000    0.000001    5.729661    0.000000    -5.721453    5.729662    -0.000001    0.000001    5.729655    0.000001    -0.000002    6.022393    -17.906971    -9.584982    5.729664    0.000001    0.000000    5.729666    -0.000001    -0.000002    0.026834    -7.287059    6.576706    -0.000000    17.080708    0.000001    -7.049005    -15.592774    13.208311    -0.000000    -1.101707    -0.000001    2.691824    -1.490084    5.000695    -0.000000    6.561670    -0.000000    -4.185177    -8.200459    -20.274971    -0.000000    0.467950    0.000000    
10.907009    90.038910    -14.200190    -0.601020    -3.886986    -179.933960    0.004222    -13.222321    0.018459    -0.186287    13.512228    0.060999    0.592289    -4.676072    -2.340904    0.217083    -2.879517    -2.383056    -4.150036    0.324943    -7.923125    -68.367569    28.845423    -2.182660    -1.289555    -6.341306    -11.519547    -1.302658    -1.142300    -7.328254    21.892239    46.518803    -61.151157    -22.867792    -4.684816    22.867783    -0.000000    0.000000    -0.000000    -6.022398    17.906969    -15.306656    -5.729669    -0.000005    -0.000002    -5.729665    0.000002    -0.000002    -5.729670    -0.000000    -8.582283    -5.729654    -0.000003    -0.000009    -5.729670    -0.000003    -0.000001    -5.729672    -0.000001    5.721500    -5.729665    -0.000004    -0.000004    -5.729669    0.000000    -0.000003    -6.022421    -17.906973    9.585077    -5.729662    -0.000006    -0.000005    -5.729665    0.000001    0.000001    5.108743    6.000159    4.380563    64.073715    39.996746    15.719798    4.292791    -33.674274    7.709797    0.005612    -5.496823    -7.495841    -21.892237    46.518822    61.151142    22.867790    -4.684828    -22.867781    -0.000000    0.000000    -0.000000    6.022418    17.906967    15.306630    5.729661    0.000002    0.000001    5.729662    -0.000003    -0.000002    5.729671    -0.000002    8.582276    5.729666    0.000000    -0.000000    5.729670    0.000001    0.000001    5.729669    -0.000002    -5.721510    5.729669    -0.000000    0.000000    5.729662    0.000000    -0.000001    6.022414    -17.906973    -9.585090    5.729669    -0.000000    0.000000    5.729659    0.000000    0.000001    0.014861    -7.278075    6.529416    0.000000    17.065350    -0.000000    -7.100577    -15.595732    13.232086    0.000000    -1.099879    0.000002    2.684093    -1.481908    4.984173    -0.000000    6.553956    -0.000000    -4.184965    -8.200209    -20.282501    0.000000    0.465127    -0.000000    
10.903054    90.040230    -14.186685    -0.604254    -3.873748    -179.921875    0.003201    -13.215131    0.014001    -0.187739    13.510027    0.057112    0.576665    -4.665394    -2.346106    0.227021    -2.883997    -2.386336    -4.158098    0.322859    -7.913629    -68.364777    28.845972    -2.192762    -1.281734    -6.323301    -11.483274    -1.300284    -1.138284    -7.329700    21.892212    46.518925    -61.151352    -22.867796    -4.684827    22.867790    -0.000000    0.000000    -0.000000    -6.022406    17.906967    -15.306803    -5.729662    0.000004    -0.000001    -5.729665    0.000000    0.000000    -5.729659    0.000000    -8.582355    -5.729676    -0.000001    -0.000013    -5.729654    0.000004    0.000003    -5.729662    0.000000    5.721560    -5.729673    0.000004    -0.000010    -5.729668    -0.000004    0.000001    -6.022403    -17.906973    9.585193    -5.729665    0.000001    -0.000006    -5.729665    0.000000    -0.000001    5.108149    6.009715    4.374571    64.079529    39.992123    15.699825    4.292133    -33.670696    7.709334    0.019156    -5.477671    -7.478736    -21.892199    46.518925    61.151325    22.867788    -4.684795    -22.867777    -0.000000    0.000000    -0.000000    6.022403    17.906977    15.306803    5.729654    0.000002    -0.000000    5.729674    -0.000002    0.000000    5.729651    0.000005    8.582362    5.729678    -0.000001    0.000000    5.729651    -0.000000    -0.000001    5.729654    0.000004    -5.721557    5.729665    0.000000    -0.000000    5.729665    -0.000002    0.000001    6.022391    -17.906967    -9.585195    5.729665    0.000001    0.000001    5.729666    -0.000000    -0.000000    0.007005    -7.268032    6.501439    0.000000    17.050562    -0.000001    -7.148343    -15.593371    13.238858    -0.000000    -1.097013    -0.000000    2.677614    -1.473478    4.967947    -0.000000    6.546815    -0.000001    -4.179123    -8.197653    -20.279961    -0.000000    0.462289    -0.000002    
10.899960    90.041588    -14.173779    -0.606479    -3.859334    -179.914658    0.003184    -13.211653    0.013931    -0.190126    13.511882    0.057610    0.561736    -4.648139    -2.352638    0.237016    -2.889940    -2.390906    -4.158872    0.318396    -7.900324    -68.362419    28.848585    -2.207254    -1.274781    -6.305070    -11.454522    -1.305807    -1.143114    -7.337805    21.892183    46.519024    -61.151531    -22.867790    -4.684815    22.867786    -0.000000    0.000000    -0.000000    -6.022417    17.906971    -15.306972    -5.729661    0.000006    0.000003    -5.729673    -0.000003    -0.000000    -5.729660    0.000001    -8.582438    -5.729679    -0.000005    -0.000012    -5.729650    0.000003    0.000002    -5.729662    -0.000002    5.721611    -5.729683    -0.000002    -0.000013    -5.729654    0.000002    0.000003    -6.022405    -17.906969    9.585298    -5.729689    0.000001    -0.000005    -5.729656    0.000000    0.000001    5.105657    6.021152    4.376590    64.089409    39.985065    15.675781    4.282913    -33.666161    7.693820    0.033153    -5.466350    -7.452511    -21.892170    46.519032    61.151512    22.867786    -4.684808    -22.867792    -0.000000    0.000000    -0.000000    6.022414    17.906973    15.306952    5.729668    -0.000000    0.000000    5.729665    -0.000001    -0.000001    5.729670    0.000001    8.582434    5.729668    0.000001    0.000000    5.729670    -0.000001    -0.000000    5.729677    0.000003    -5.721616    5.729665    -0.000001    0.000001    5.729671    0.000000    -0.000000    6.022418    -17.906967    -9.585300    5.729665    -0.000000    -0.000000    5.729658    -0.000000    0.000000    0.002922    -7.258410    6.490201    -0.000000    17.040920    0.000000    -7.186750    -15.587940    13.235384    -0.000000    -1.094007    0.000002    2.672250    -1.464786    4.954532    -0.000000    6.543481    -0.000000    -4.171148    -8.192783    -20.270611    -0.000000    0.459165    -0.000000    
